<svg xmlns="http://www.w3.org/2000/svg" xmlns:xlink="http://www.w3.org/1999/xlink" xmlns:lucid="lucid" width="752" height="637"><g transform="translate(-3838.99999996362 -824)" lucid:page-tab-id="0_0"><path d="M3840 1106a6 6 0 0 1 6-6h148a6 6 0 0 1 6 6v108a6 6 0 0 1-6 6h-148a6 6 0 0 1-6-6z" stroke="#3a414a" stroke-width="2" fill="#fff"/><path d="M3990 1110h-15v20h15z" stroke="#3a414a" fill="#fff"/><path d="M3980 1113.33h-10v3.34h10zm0 10h-10v3.34h10z" stroke="#3a414a" fill="#fff"/><use xlink:href="#a" transform="matrix(1,0,0,1,3840,1100) translate(49.829218749999995 66.52777777777777)"/><path d="M4280 866a6 6 0 0 1 6-6h188a6 6 0 0 1 6 6v108a6 6 0 0 1-6 6h-188a6 6 0 0 1-6-6z" stroke="#3a414a" stroke-width="2" fill="#fff"/><path d="M4470 870h-15v20h15z" stroke="#3a414a" fill="#fff"/><path d="M4460 873.33h-10v3.34h10zm0 10h-10v3.34h10z" stroke="#3a414a" fill="#fff"/><use xlink:href="#b" transform="matrix(1,0,0,1,4280,860) translate(20.360902777777774 55.27777777777778)"/><use xlink:href="#c" transform="matrix(1,0,0,1,4280,860) translate(88.09093750000001 55.27777777777778)"/><use xlink:href="#d" transform="matrix(1,0,0,1,4280,860) translate(65.35330729166667 82.16579861111111)"/><path d="M4280 1346a6 6 0 0 1 6-6h188a6 6 0 0 1 6 6v108a6 6 0 0 1-6 6h-188a6 6 0 0 1-6-6z" stroke="#3a414a" stroke-width="2" fill="#fff"/><path d="M4470 1350h-15v20h15z" stroke="#3a414a" fill="#fff"/><path d="M4460 1353.33h-10v3.34h10zm0 10h-10v3.34h10z" stroke="#3a414a" fill="#fff"/><use xlink:href="#b" transform="matrix(1,0,0,1,4280,1340) translate(31.488289930555545 66.52777777777777)"/><use xlink:href="#d" transform="matrix(1,0,0,1,4280,1340) translate(99.21832465277778 66.52777777777777)"/><path d="M4280 880h-10m-40 0c0-11.05 8.95-20 20-20s20 8.95 20 20-8.95 20-20 20-20-8.95-20-20z" stroke="#3a414a" stroke-width="2" fill="#fff"/><path d="M4280 880.8h-10v-1.6h10zM4015 830a6 6 0 0 1 6-6h228a6 6 0 0 1 6 6v48a6 6 0 0 1-6 6h-228a6 6 0 0 1-6-6z" fill="none"/><use xlink:href="#e" transform="matrix(1,0,0,1,4015,824) translate(40.763888888888886 36.467013888888886)"/><use xlink:href="#f" transform="matrix(1,0,0,1,4015,824) translate(152.41319444444446 36.467013888888886)"/><path d="M3920 1098.5v-5.06m0-5.05v-10.12m0-5.06v-10.1m0-5.07v-10.1m0-5.07v-10.1m0-5.06v-10.12m0-5.05v-10.1m0-5.07v-10.1m0-5.07v-10.1m0-5.06v-10.1m0-5.06v-10.12m0-5.05v-10.1m0-5.06v-10.1m0-5.07v-10.1m0-5.06v-5.05l.07-.94.22-.9.35-.88.5-.8.6-.7.72-.63.8-.5.88-.36.9-.22.95-.07h5.03m5.04 0h10.07m5.04 0h10.06m5.04 0h10.07m5.03 0h10.07m5.04 0h10.06m5.03 0h10.06m5.04 0h10.07m5.03 0h10.07m5.04 0H4067m5.03 0h10.08m5.04 0h10.07m5.02 0h10.07m5.03 0h10.07m5.03 0h10.07m5.04 0h10.07m5.04 0h10.07m5.05 0h10.07m5.03 0h10.07m5.04 0h10.07m5.03 0h5.04" stroke="#3a414a" fill="none"/><path d="M3920.47 1099h-.94v-.5h.94z" stroke="#3a414a" stroke-width=".05" fill="#3a414a"/><path d="M4210.68 870.15l17.32 10-17.32 10" stroke="#3a414a" fill="none"/><path d="M4000 1140h10m40 0c0 11.05-8.95 20-20 20s-20-8.95-20-20 8.95-20 20-20 20 8.95 20 20z" stroke="#3a414a" stroke-width="2" fill="#fff"/><path d="M4000 1139.2h10v1.6h-10z" fill="none"/><path d="M3990 1116a6 6 0 0 1 6-6h228a6 6 0 0 1 6 6v48a6 6 0 0 1-6 6h-228a6 6 0 0 1-6-6z" fill="none"/><use xlink:href="#g" transform="matrix(1,0,0,1,3990,1110) translate(74.65277777777777 36.467013888888886)"/><use xlink:href="#h" transform="matrix(1,0,0,1,3990,1110) translate(128.83680555555554 36.467013888888886)"/><path d="M4280 1440h-10m-40 0c0-11.05 8.95-20 20-20s20 8.95 20 20-8.95 20-20 20-20-8.95-20-20z" stroke="#3a414a" stroke-width="2" fill="#fff"/><path d="M4280 1440.8h-10v-1.6h10z" fill="none"/><path d="M3920 1221.5v5.08m0 5.07v10.15m0 5.08v10.15m0 5.07v10.15m0 5.08v10.15m0 5.07v10.15m0 5.08v10.15m0 5.07v10.15m0 5.08v10.15m0 5.07v10.15m0 5.08v10.15m0 5.07v10.15m0 5.08v10.15m0 5.07v10.15m0 5.08v5.07l.07.94.22.9.35.88.5.8.6.72.72.6.8.5.88.36.9.22.95.07h5.03m5.04 0h10.07m5.04 0h10.07m5.03 0h10.07m5.04 0h10.06m5.03 0h10.06m5.04 0h10.07m5.03 0h10.08m5.03 0h10.08m5.04 0H4067m5.02 0h10.07m5.03 0h10.07m5.03 0h10.07m5.04 0h10.07m5.04 0h10.08m5.03 0h10.07m5.03 0h10.08m5.03 0h10.07m5.04 0h10.07m5.03 0h10.07m5.04 0h5.03" stroke="#3a414a" fill="none"/><path d="M3920.47 1221.5h-.94v-.5h.94z" stroke="#3a414a" stroke-width=".05" fill="#3a414a"/><path d="M4210.7 1430.65l17.32 10-17.32 10" stroke="#3a414a" fill="none"/><path d="M4040 1386a6 6 0 0 1 6-6h228a6 6 0 0 1 6 6v48a6 6 0 0 1-6 6h-228a6 6 0 0 1-6-6z" fill="none"/><use xlink:href="#i" transform="matrix(1,0,0,1,4040,1380) translate(55.16927083333333 36.467013888888886)"/><use xlink:href="#j" transform="matrix(1,0,0,1,4040,1380) translate(129.27517361111111 36.467013888888886)"/><path d="M4351 1287a6 6 0 0 1 6-6h228a6 6 0 0 1 6 6v48a6 6 0 0 1-6 6h-228a6 6 0 0 1-6-6z" fill="none"/><g><use xlink:href="#k" transform="matrix(1,0,0,1,4351,1281) translate(23.0685763888889 36.467013888888886)"/><use xlink:href="#l" transform="matrix(1,0,0,1,4351,1281) translate(123.83246527777779 36.467013888888886)"/><use xlink:href="#m" transform="matrix(1,0,0,1,4351,1281) translate(175.65538194444446 36.467013888888886)"/></g><g><path d="M4340 1340v-11M4340 1295v-5" stroke="#3a414a" stroke-width="2" fill="none"/><path d="M4326 1315c0-7.73 6.27-14 14-14s14 6.27 14 14-6.27 14-14 14-14-6.27-14-14z" stroke="#3a414a" stroke-width="2" fill="#fff"/><path d="M4360 1315c0-11.05-8.95-20-20-20s-20 8.95-20 20" stroke="#3a414a" stroke-width="2" fill="none"/><path d="M4340 1340a.8.8 0 0 1-.8-.8v-9.4a.8.8 0 0 1 .8-.8.8.8 0 0 1 .8.8v9.4a.8.8 0 0 1-.8.8z" fill="none"/></g><path d="M4002 1190.38h332a6 6 0 0 1 6 6V1289" stroke="#3a414a" stroke-width="2" fill="none"/><path d="M4002.03 1191.35H4001v-1.95h1.03zM4340.98 1290h-1.95v-1.03h1.95z" stroke="#3a414a" stroke-width=".05" fill="#3a414a"/><defs><path d="M783 20c-382 0-661-292-661-764 0-473 279-766 661-766 302 0 548 182 601 489h-190c-42-204-217-313-411-313-268 0-476 208-476 590 0 381 209 588 476 588 195 0 369-110 411-313h190c-52 303-296 489-601 489" id="n"/><path d="M338-1490V0H158v-1490h180" id="o"/><path d="M158 0v-1118h180V0H158zm91-1301c-68 0-125-53-125-119s57-119 125-119c69 0 126 53 126 119s-57 119-126 119" id="p"/><path d="M628 24c-324 0-524-230-524-574 0-343 198-582 503-582 237 0 487 146 487 559v75H286c9 234 145 362 343 362 132 0 231-58 273-172l174 48C1024-91 857 24 628 24zM287-650h624c-17-190-120-322-304-322-192 0-309 151-320 322" id="q"/><path d="M338-670V0H158v-1118h173l1 207c72-158 192-221 342-221 226 0 378 139 378 422V0H872v-695c0-172-96-275-252-275-161 0-282 109-282 300" id="r"/><path d="M598-1118v154H368v674c0 100 37 144 132 144 23 0 62-6 92-12L629-6c-37 13-88 20-134 20-193 0-307-107-307-290v-688H20v-154h168v-266h180v266h230" id="s"/><g id="a"><use transform="matrix(0.010850694444444444,0,0,0.010850694444444444,0,0)" xlink:href="#n"/><use transform="matrix(0.010850694444444444,0,0,0.010850694444444444,16.23263888888889,0)" xlink:href="#o"/><use transform="matrix(0.010850694444444444,0,0,0.010850694444444444,21.614583333333336,0)" xlink:href="#p"/><use transform="matrix(0.010850694444444444,0,0,0.010850694444444444,26.99652777777778,0)" xlink:href="#q"/><use transform="matrix(0.010850694444444444,0,0,0.010850694444444444,39.95225694444444,0)" xlink:href="#r"/><use transform="matrix(0.010850694444444444,0,0,0.010850694444444444,53.08159722222222,0)" xlink:href="#s"/></g><path d="M789 20c-398 0-667-293-667-764 0-473 273-766 655-766 315 0 558 198 612 487h-196c-61-191-204-311-415-311-262 0-471 207-471 590 0 380 208 588 482 588 249 0 420-165 425-427H828v-166h572v163c0 370-256 606-611 606" id="t"/><path d="M471 26C259 26 90-98 90-318c0-256 228-303 435-329 202-27 287-16 287-108 0-139-79-219-234-219-161 0-248 86-283 164l-173-57c86-203 278-265 451-265 150 0 419 46 419 395V0H815v-152h-12C765-73 660 26 471 26zm31-159c199 0 310-134 310-271v-155c-30 35-226 55-295 64-131 17-246 59-246 186 0 116 97 176 231 176" id="u"/><path d="M158 0v-1118h175l1 205c55-151 181-225 313-225 147 0 245 90 285 228 53-141 190-228 352-228 194 0 352 125 352 384V0h-181v-749c0-161-105-225-225-225-151 0-243 103-243 244V0H807v-767c0-124-93-207-219-207-131 0-250 92-250 270V0H158" id="v"/><g id="b"><use transform="matrix(0.010850694444444444,0,0,0.010850694444444444,0,0)" xlink:href="#t"/><use transform="matrix(0.010850694444444444,0,0,0.010850694444444444,16.57986111111111,0)" xlink:href="#u"/><use transform="matrix(0.010850694444444444,0,0,0.010850694444444444,29.05815972222222,0)" xlink:href="#v"/><use transform="matrix(0.010850694444444444,0,0,0.010850694444444444,48.52430555555556,0)" xlink:href="#q"/></g><path d="M180 0v-1490h901v168H370v510h643v168H370V0H180" id="w"/><path d="M577 24c-279 0-473-224-473-580 0-354 195-576 474-576 218 0 287 134 324 193h14v-551h180V0H922v-173h-20C865-111 790 24 577 24zm27-161c203 0 314-172 314-421 0-247-108-413-314-413-212 0-317 181-317 413 0 235 108 421 317 421" id="x"/><path d="M158 0v-1118h174v172h12c41-113 157-188 290-188 26 0 70 2 91 3v181c-11-2-60-10-108-10-161 0-279 109-279 260V0H158" id="y"/><g id="c"><use transform="matrix(0.010850694444444444,0,0,0.010850694444444444,0,0)" xlink:href="#w"/><use transform="matrix(0.010850694444444444,0,0,0.010850694444444444,13.118489583333332,0)" xlink:href="#p"/><use transform="matrix(0.010850694444444444,0,0,0.010850694444444444,18.50043402777778,0)" xlink:href="#r"/><use transform="matrix(0.010850694444444444,0,0,0.010850694444444444,31.62977430555556,0)" xlink:href="#x"/><use transform="matrix(0.010850694444444444,0,0,0.010850694444444444,45.236545138888886,0)" xlink:href="#q"/><use transform="matrix(0.010850694444444444,0,0,0.010850694444444444,58.19227430555555,0)" xlink:href="#y"/></g><path d="M657 26c-323 0-524-166-541-416h195c15 169 171 246 346 246 202 0 356-106 356-265 5-203-294-238-475-293-239-73-380-191-380-389 0-252 224-419 512-419 294 0 499 171 508 396H992c-17-145-151-228-328-228-193 0-321 102-321 242 0 156 175 211 284 241l149 41c160 44 422 134 422 412 0 244-197 432-541 432" id="z"/><path d="M481 0L54-1118h197c107 314 236 620 325 951 87-331 217-637 324-951h197L670 0H481" id="A"/><g id="d"><use transform="matrix(0.010850694444444444,0,0,0.010850694444444444,0,0)" xlink:href="#z"/><use transform="matrix(0.010850694444444444,0,0,0.010850694444444444,14.2578125,0)" xlink:href="#q"/><use transform="matrix(0.010850694444444444,0,0,0.010850694444444444,27.213541666666664,0)" xlink:href="#y"/><use transform="matrix(0.010850694444444444,0,0,0.010850694444444444,35.92664930555555,0)" xlink:href="#A"/><use transform="matrix(0.010850694444444444,0,0,0.010850694444444444,47.98177083333333,0)" xlink:href="#q"/><use transform="matrix(0.010850694444444444,0,0,0.010850694444444444,60.937499999999986,0)" xlink:href="#y"/></g><path d="M692-1560L212 224H46l480-1784h166" id="B"/><path d="M611 442c-248 0-391-105-460-228l146-94c47 65 117 165 314 165 178 0 307-82 307-266v-224h-17C863-141 792-18 576-18c-268 0-472-195-472-546 0-346 197-568 476-568 216 0 288 133 326 193h17v-179h175V29c0 289-215 413-487 413zm-5-620c203 0 314-146 314-390 0-237-108-403-314-403-213 0-319 180-319 403 0 230 109 390 319 390" id="C"/><path d="M538 24C308 24 148-78 108-271l171-41c32 123 123 178 257 178 156 0 256-77 256-169 0-77-54-128-164-154l-186-44c-203-48-300-148-300-305 0-192 176-326 414-326 230 0 351 112 402 269l-163 42c-31-80-94-158-238-158-133 0-233 69-233 162 0 83 57 129 188 160l169 40c203 48 298 149 298 302 0 196-179 339-441 339" id="D"/><g id="e"><use transform="matrix(0.008680555555555556,0,0,0.008680555555555556,0,0)" xlink:href="#w"/><use transform="matrix(0.008680555555555556,0,0,0.008680555555555556,10.494791666666668,0)" xlink:href="#p"/><use transform="matrix(0.008680555555555556,0,0,0.008680555555555556,14.800347222222223,0)" xlink:href="#r"/><use transform="matrix(0.008680555555555556,0,0,0.008680555555555556,25.303819444444446,0)" xlink:href="#x"/><use transform="matrix(0.008680555555555556,0,0,0.008680555555555556,36.189236111111114,0)" xlink:href="#B"/><use transform="matrix(0.008680555555555556,0,0,0.008680555555555556,42.595486111111114,0)" xlink:href="#y"/><use transform="matrix(0.008680555555555556,0,0,0.008680555555555556,48.993055555555564,0)" xlink:href="#q"/><use transform="matrix(0.008680555555555556,0,0,0.008680555555555556,59.3576388888889,0)" xlink:href="#C"/><use transform="matrix(0.008680555555555556,0,0,0.008680555555555556,70.26041666666669,0)" xlink:href="#p"/><use transform="matrix(0.008680555555555556,0,0,0.008680555555555556,74.56597222222224,0)" xlink:href="#D"/><use transform="matrix(0.008680555555555556,0,0,0.008680555555555556,83.9496527777778,0)" xlink:href="#s"/><use transform="matrix(0.008680555555555556,0,0,0.008680555555555556,89.59201388888891,0)" xlink:href="#q"/><use transform="matrix(0.008680555555555556,0,0,0.008680555555555556,99.95659722222224,0)" xlink:href="#y"/></g><g id="f"><use transform="matrix(0.008680555555555556,0,0,0.008680555555555556,0,0)" xlink:href="#C"/><use transform="matrix(0.008680555555555556,0,0,0.008680555555555556,10.902777777777779,0)" xlink:href="#u"/><use transform="matrix(0.008680555555555556,0,0,0.008680555555555556,20.885416666666668,0)" xlink:href="#v"/><use transform="matrix(0.008680555555555556,0,0,0.008680555555555556,36.458333333333336,0)" xlink:href="#q"/></g><g id="g"><use transform="matrix(0.008680555555555556,0,0,0.008680555555555556,0,0)" xlink:href="#t"/><use transform="matrix(0.008680555555555556,0,0,0.008680555555555556,13.26388888888889,0)" xlink:href="#u"/><use transform="matrix(0.008680555555555556,0,0,0.008680555555555556,23.24652777777778,0)" xlink:href="#v"/><use transform="matrix(0.008680555555555556,0,0,0.008680555555555556,38.81944444444444,0)" xlink:href="#q"/></g><path d="M613 24c-304 0-509-231-509-576 0-350 205-580 509-580 305 0 511 230 511 580 0 345-206 576-511 576zm0-161c226 0 329-195 329-415 0-222-103-419-329-419-223 0-326 196-326 419 0 220 103 415 326 415" id="E"/><path d="M158 418v-1536h174v179h20c37-59 106-193 324-193 279 0 474 222 474 576 0 356-194 580-473 580-213 0-288-135-325-197h-14v591H158zm492-555c209 0 317-186 317-421 0-232-105-413-317-413-206 0-314 166-314 413 0 249 111 421 314 421" id="F"/><g id="h"><use transform="matrix(0.008680555555555556,0,0,0.008680555555555556,0,0)" xlink:href="#o"/><use transform="matrix(0.008680555555555556,0,0,0.008680555555555556,4.305555555555555,0)" xlink:href="#E"/><use transform="matrix(0.008680555555555556,0,0,0.008680555555555556,14.965277777777779,0)" xlink:href="#E"/><use transform="matrix(0.008680555555555556,0,0,0.008680555555555556,25.625,0)" xlink:href="#F"/></g><path d="M409 0L70-1118h191c89 329 165 560 243 925 75-353 154-601 240-925h192c85 325 161 564 235 922 77-354 157-598 244-922h191L1267 0h-179c-86-307-176-590-250-913C763-588 675-308 588 0H409" id="G"/><g id="i"><use transform="matrix(0.008680555555555556,0,0,0.008680555555555556,0,0)" xlink:href="#w"/><use transform="matrix(0.008680555555555556,0,0,0.008680555555555556,9.791666666666668,0)" xlink:href="#E"/><use transform="matrix(0.008680555555555556,0,0,0.008680555555555556,20.451388888888893,0)" xlink:href="#y"/><use transform="matrix(0.008680555555555556,0,0,0.008680555555555556,27.29166666666667,0)" xlink:href="#G"/><use transform="matrix(0.008680555555555556,0,0,0.008680555555555556,41.840277777777786,0)" xlink:href="#u"/><use transform="matrix(0.008680555555555556,0,0,0.008680555555555556,51.82291666666667,0)" xlink:href="#y"/><use transform="matrix(0.008680555555555556,0,0,0.008680555555555556,58.22048611111112,0)" xlink:href="#x"/></g><g id="j"><use transform="matrix(0.008680555555555556,0,0,0.008680555555555556,0,0)" xlink:href="#q"/><use transform="matrix(0.008680555555555556,0,0,0.008680555555555556,10.01736111111111,0)" xlink:href="#A"/><use transform="matrix(0.008680555555555556,0,0,0.008680555555555556,19.661458333333336,0)" xlink:href="#q"/><use transform="matrix(0.008680555555555556,0,0,0.008680555555555556,30.02604166666667,0)" xlink:href="#r"/><use transform="matrix(0.008680555555555556,0,0,0.008680555555555556,40.52951388888889,0)" xlink:href="#s"/><use transform="matrix(0.008680555555555556,0,0,0.008680555555555556,46.171875,0)" xlink:href="#D"/></g><path d="M126 0v-134l627-806v-11H146v-167h839v143L376-178v11h629V0H126" id="H"/><g id="k"><use transform="matrix(0.008680555555555556,0,0,0.008680555555555556,0,0)" xlink:href="#n"/><use transform="matrix(0.008680555555555556,0,0,0.008680555555555556,12.986111111111112,0)" xlink:href="#q"/><use transform="matrix(0.008680555555555556,0,0,0.008680555555555556,23.350694444444446,0)" xlink:href="#r"/><use transform="matrix(0.008680555555555556,0,0,0.008680555555555556,33.85416666666667,0)" xlink:href="#s"/><use transform="matrix(0.008680555555555556,0,0,0.008680555555555556,39.67013888888889,0)" xlink:href="#y"/><use transform="matrix(0.008680555555555556,0,0,0.008680555555555556,46.362847222222236,0)" xlink:href="#u"/><use transform="matrix(0.008680555555555556,0,0,0.008680555555555556,56.345486111111114,0)" xlink:href="#o"/><use transform="matrix(0.008680555555555556,0,0,0.008680555555555556,60.65104166666667,0)" xlink:href="#p"/><use transform="matrix(0.008680555555555556,0,0,0.008680555555555556,64.95659722222223,0)" xlink:href="#H"/><use transform="matrix(0.008680555555555556,0,0,0.008680555555555556,74.51388888888889,0)" xlink:href="#q"/><use transform="matrix(0.008680555555555556,0,0,0.008680555555555556,84.87847222222221,0)" xlink:href="#x"/></g><g id="l"><use transform="matrix(0.008680555555555556,0,0,0.008680555555555556,0,0)" xlink:href="#C"/><use transform="matrix(0.008680555555555556,0,0,0.008680555555555556,10.902777777777779,0)" xlink:href="#u"/><use transform="matrix(0.008680555555555556,0,0,0.008680555555555556,20.885416666666668,0)" xlink:href="#v"/><use transform="matrix(0.008680555555555556,0,0,0.008680555555555556,36.458333333333336,0)" xlink:href="#q"/></g><g id="m"><use transform="matrix(0.008680555555555556,0,0,0.008680555555555556,0,0)" xlink:href="#D"/><use transform="matrix(0.008680555555555556,0,0,0.008680555555555556,9.383680555555555,0)" xlink:href="#s"/><use transform="matrix(0.008680555555555556,0,0,0.008680555555555556,15.286458333333332,0)" xlink:href="#u"/><use transform="matrix(0.008680555555555556,0,0,0.008680555555555556,25.269097222222225,0)" xlink:href="#s"/><use transform="matrix(0.008680555555555556,0,0,0.008680555555555556,30.911458333333332,0)" xlink:href="#q"/></g></defs></g></svg>